<svg id="Layer_1" data-name="Layer 1" xmlns="http://www.w3.org/2000/svg" viewBox="0 0 414.72 261.36"><defs><style>.cls-1 { fill: #176968; }
  .cls-2 { fill: #f15b30; }
  .cls-3 { fill: #fff; }
</style></defs><path class="cls-1" d="M29.46,114.24V65.33c0-7.84.51-11.3-5.14-11.3V52.87H61.05V54c-5.52,0-5.27,2-5.27,11.3v49.81c0,15.16,8,21.58,20.16,21.58,13.74,0,20.67-9.51,20.67-21.58V81.76C96.61,71.23,93.27,54,81.08,54V52.87h33.64l.13,1.16c-14.39,0-17.08,17.2-17.08,27.73v33.38c0,17-11.3,29.28-33.9,29.28C46.41,144.42,29.46,135.17,29.46,114.24Z"/><path class="cls-1" d="M172.49,102.69a12.12,12.12,0,0,1-17,1.28c-2.44-2.31-4.11-5-4.11-8,0-1.67-4.11-.77-9.37,7.19v25.55c0,7.07.64,12.2,5.26,13.49v1h-32.1v-1c4.88-1.42,5-6.94,5-13.49V97.43c0-4.5-1.54-6.3-6.8-8.22v-1l28.63-5.39v18c9.12-13.74,13-15.27,16.82-17.07,3.59-1.67,9-.9,12.33,2A12,12,0,0,1,172.49,102.69Z"/><path class="cls-1" d="M251.32,112.58c0,25.42-16.95,31.84-33.38,31.84-10.15,0-16.18-2.44-19.65-5.65-4.11,2.7-17.85,5.91-17.85,3.85V62.12c0-4.37-1.28-6.3-6.54-8.22v-1l28.24-5.39V92.55c3.73-6.42,10.15-9.76,22.09-9.76C242,82.79,251.32,96.65,251.32,112.58Zm-25.81,1.79c0-15-3.59-27.73-12.84-27.73-8.6,0-10.53,10.53-10.53,20.41v13.61c0,14.64,3,22.6,10.66,22.6C220,143.26,225.51,134.92,225.51,114.37Z"/><path class="cls-1" d="M322.45,135.05c-1.8,5.64-8.48,9.37-16.57,9.37,0,0-14.25,0-15.4-11.56-1.67,6.68-8.22,11.56-17.34,11.56-4.88,0-16.05-2.18-16.05-13.1,0-12.84,10.4-15.28,33.26-20.67v-8.22c0-13.35-7.58-20.54-16.44-15.92,0,0-2.82,1.67,1.54,3.21,2.19.77,3.6,2.57,4.62,4.88a9.1,9.1,0,1,1-16.82,6.93,9.29,9.29,0,0,1,1.54-9.5,30.56,30.56,0,0,1,8.61-6.54,25.25,25.25,0,0,1,12.07-2.7c16.82,0,26.19,10.53,26.19,25.68V127.6s0,9.24,6.16,9c0,0,3.21,0,3.86-2.19Zm-32.1-23.11c-10.53,2.3-10.4,10.14-10.4,16.17,0,0-.13,8.48,5,8.48,2.19,0,4-1.8,5.4-4.88Z"/><path class="cls-1" d="M392.16,142.24v1h-32.1v-1c4.88-1.42,5.14-7.07,5.14-13.61V102.82c0-7.32-2.7-10.79-8.86-10.79-2.83,0-5.78,2.31-7.58,5v31.71c0,7.07.64,12.2,5.27,13.49v1h-32.1v-1c4.88-1.42,5-6.81,5-13.49V97.43c0-4.5-1.41-6.3-6.67-8.22v-1l28.5-5.39V95.24c3.34-6.8,10.14-12.45,17.08-12.45,10.27,0,21.06,4.11,21.06,19.51v26.33C386.9,135.69,387.67,141.08,392.16,142.24Z"/><path class="cls-2" d="M85.27,227.44c.72,1.48,2,1.65,3.26,1.93C87.61,227.94,86.61,227.31,85.27,227.44Z"/><path class="cls-2" d="M88.55,229.4l0,0h0Z"/><path class="cls-2" d="M330.61,169.9l-1,.06A1.87,1.87,0,0,0,330.61,169.9Z"/><path class="cls-2" d="M328.88,171.07l-.19,1.88c-1.94.61-.42-1.13-2.3-1-.07-1.54,1.67-1.83,3.2-1.94-1.37-.21-2.71-1.36-3.31.31-1.27-.67.19-1.88-1.34-2.58-1.12.43-2.61,1.9-3.85,1l0-.27c-3.05-1.67-4.78,2.22-7.56.58l.31-.51c-1-.92-3,.23-4.74-.76.51.32.93,1.45-.16,1.6-2-1-3.48-.08-5-1.32l-1.48,1.47c-7.19-.47-35.67,1-42.91,1l.29-.23c-11,.48-33.64-.19-45.07,1.61-1.73-1.53-4.16-1.24-6-1.7,1,.64.63,1.69-.17,1.61-5.59-.31-.4,1-6.08,1.51-6.55,1.22-31.45-1-37.2-2.37-3.17,2.11-7,.36-10.08,1.67l.32-.51c-3.3.74-21.76-1.74-25.57-1l.5.33c-3.35,1.27-2.84-1.11-5.43-1.92.28,2.46-2.59,3.79-3.68,3.95l.05-.54c-1.64.37-5.39,2.42-8.1,2.68l.14-1.34c-2.28,1.39-6.5.68-8.12.78-3.68-.64-9.33-3.12-14.31-1.47l-3.1-3.9-.48.37s-6.28,46.08,0,56.09l-.14,1.33,1.3-.14c1.53.7,2.29-.84,2.15.5l-2.12-.21c1.55.42.44,1.1-.17,1.85a4,4,0,0,1,1.78.74c.32-.5-.21-.56-.45-.85.85-.46,2-1.69,3-1,1.59.16,0,2.17,1.91,2.36,9.78,1.28,19.24,3.06,29.16,3,.21.56,0,.53-.35.77,3-.5,5.65-.23,8.39-.76a4.14,4.14,0,0,1,1.13,2c-.42-1.12,15.05-.85,15.29-.55l.24-2.41c2.95,0,.79,2.79,3.52,2.25,1.15-3.39,4.51.47,5.5-1.33,0,.28,1.3.41,1.19,1.48.45-1.85,1.38-.4,2.23-.85.31-.51-.21-.56-.43-1.13l1.94-.61c.74.62.9,1.72.08,1.9,5,.79,29.09,3.16,34.53,2.37-.67-1.42-2.36-.52-2.94-2.74,1.46-1.2,2.1.48,2.76-.8.47,3.3,3.13.86,4.13,4.21l.45-1.85.69,1.16c6.34-1.78,1.46-.91,7-.33,3.23-.21,4.83-2.75,6.61-1.76-.27,0-.95-1.18-.11-1.63.11,1.63,2.26-1.12,2.63.54.82-.19,3.47.09,2.63-2.17.42,1.13,2.78,1.64,1.34,2.58.8.08,1.57.43,2.15,0l-1-.65c2.71-.26,4.14,1.51,6-.47l-1-.91c1.62-.1,3-.24,3.55,2l-1.67.64c2.67,0,4.29-.1,6.55-1.22l-.79-.08c2.89-2.14,17.8-3.6,20.48-6.3l-1.16-1.74,2.29-1.39c-.27,0-1.23,5.54-1.43,5,4.82,0,29.95-.76,34.38.51,1.77,1,.25,2.73.23,3,2.2-.59,1-1.8,2.84-1.61.5.33-.14,1.35-.43,1.58.82-.18,1.56.43,1.65-.37-1-.64-.53-2.76-.92-4.15l2.39.24-.14,1.34c.53.06,1.44-3.64,3.77-2.86,3.95.68,8.27.32,12.25.73-.08.8-.93,1.25-1.78,1.71.53,0,1.35-.14,1.83.46-.93-1.45,1.7-.91,1-1.53,3-3.21,6.71-.12,9.34-2.28.3-3,6.76-50.59,6.85-54.1.8.09,1.59.17,1.83.46C331.29,171.05,329.73,170.62,328.88,171.07Z"/><path class="cls-3" d="M130.87,189.94v3.75h-7.33V198H130v3.75h-6.46v4.7h7.33v3.75H118.61v-20.3Z"/><path class="cls-3" d="M161.17,210.24l-1.12-3.41h-7.27l-1.12,3.41h-5.25l7-20.3h6l7,20.3ZM154,203.09h4.79l-2.4-7.21Z"/><path class="cls-3" d="M180.69,193.74V190h16v3.74h-5.53v16.5H186.2v-16.5Z"/><path class="cls-3" d="M225.07,189.94v3.75h-7.33V198h6.46v3.75h-6.46v4.7h7.33v3.75H212.81v-20.3Z"/><path class="cls-3" d="M247.44,202.37v7.87h-4.93V190h8a7.78,7.78,0,0,1,5.48,1.81,5.78,5.78,0,0,1,2,4.38,6.34,6.34,0,0,1-1.07,3.44,5.85,5.85,0,0,1-3.49,2.36l5,8.25h-5.77L248,202.37Zm0-8.63v4.88h3.06a2.33,2.33,0,0,0,1.77-.67,2.39,2.39,0,0,0,.65-1.74,2.46,2.46,0,0,0-.66-1.77,2.31,2.31,0,0,0-1.76-.7Z"/><path class="cls-3" d="M285.18,210.24h-4.93v-6.52l-7-13.72h5.59l3.89,9.14L286.6,190h5.59l-7,13.72Z"/></svg>